<?xml version="1.0" encoding="UTF-8" standalone="no"?>
<svg
   xmlns:dc="http://purl.org/dc/elements/1.1/"
   xmlns:cc="http://creativecommons.org/ns#"
   xmlns:rdf="http://www.w3.org/1999/02/22-rdf-syntax-ns#"
   xmlns:svg="http://www.w3.org/2000/svg"
   xmlns="http://www.w3.org/2000/svg"
   xmlns:sodipodi="http://sodipodi.sourceforge.net/DTD/sodipodi-0.dtd"
   xmlns:inkscape="http://www.inkscape.org/namespaces/inkscape"
   viewBox="0 0 5081.8437 3534.8436"
   fill-rule="evenodd"
   width="457.36594"
   height="318.13593"
   id="svg3055"
   version="1.1"
   inkscape:version="0.48.4 r"
   sodipodi:docname="AngelArtsLogo.svg">
  <metadata
     id="metadata3085">
    <rdf:RDF>
      <cc:Work
         rdf:about="">
        <dc:format>image/svg+xml</dc:format>
        <dc:type
           rdf:resource="http://purl.org/dc/dcmitype/StillImage" />
      </cc:Work>
    </rdf:RDF>
  </metadata>
  <defs
     id="defs3083" />
  <sodipodi:namedview
     pagecolor="#ffffff"
     bordercolor="#666666"
     borderopacity="1"
     objecttolerance="10"
     gridtolerance="10"
     guidetolerance="10"
     inkscape:pageopacity="0"
     inkscape:pageshadow="2"
     inkscape:window-width="1920"
     inkscape:window-height="1018"
     id="namedview3081"
     showgrid="false"
     showguides="true"
     inkscape:guide-bbox="true"
     inkscape:zoom="1.9470283"
     inkscape:cx="120.00133"
     inkscape:cy="159.82309"
     inkscape:window-x="-8"
     inkscape:window-y="-8"
     inkscape:window-maximized="1"
     inkscape:current-layer="svg3055" />
  <path
     sodipodi:type="arc"
     style="fill:#555555;fill-opacity:1"
     id="path3087"
     sodipodi:cx="222.31415"
     sodipodi:cy="156.97246"
     sodipodi:rx="220.02814"
     sodipodi:ry="150.87645"
     d="m 442.34229,156.97246 a 220.02814,150.87645 0 1 1 -440.0562793,0 220.02814,150.87645 0 1 1 440.0562793,0 z"
     transform="matrix(11.111111,0,0,11.111111,-16.933382,-29.633419)" />
  <path
     fill="#a9abae"
     fill-rule="nonzero"
     d="m376.2188,48.25c37.8109,27.297 61.0625,64.4437 61.0625,105.375 0,83.79-97.4475,151.7188-217.6875,151.7188-51.716,0-99.2146-12.5684-136.5625-33.5625 39.5911,28.5807 95.1241,46.3438 156.625,46.3438 120.24,0 217.7188-67.9288 217.7188-151.7188 0-47.7451-31.6812-90.3386-81.1562-118.1562z"
     transform="scale(11.11111)"
     id="path3057" />
  <g
     fill="#fefefe"
     id="g3059">
    <path
       d="m3212.8437,739.8438c-6,0-2,3-5,5-9,5-20,6-25,10-3,2-6,8-10,10-8,4-17,6-25,10-7,4-13,11-20,15-10,6-20,8-29,15-9,6-20,12-20,25 34,9 77-14 118-15 15-22 35-40 39-74-1-6-5-8-10-10-2,7-6,9-15,10zm354-123c-11-4-15-15-20-25-17-11-24-6-34-10-4,13-21,6-29,10-2,1-10,12-15,15-3,2-7,3-10,5-9,6-13,11-20,15-17,11-29,26-34,39-2,5-2,9-5,15-1,3-8,7-10,10-4,7-12,26-15,29-1,2-5,8-5,10 0,8-8,14-10,20-1,3-4-1-5,5-1,5-3,10-2,14 21-7 57-13 66-24 1-1 17-4 20-5 10-4 17-7 20-10 1-2 12-8 15-10 6-3 29-10 29-15 0-9 25-12 30-15 1,0 8-4 10-5 3-1 7-8 10-10 6-4 18-4 25-10 7-7 7-14 10-25-6-9-13-17-20-25zm-15-118c0,10-7,17-10,25-3,6-3,16-10,20 3,7 10,13 15,20 4,5 9,16 15,20 3,2 11-1 15,0 2,1 15,9 20,15 30-4 43,9 59,20 0,28-11,75-15,79-4,3-9,4-10,10-3,15-12,15-25,29-1,2-6,9-10,15-1,2-16,16-20,20-5,4-23,13-25,15-3,4-6,6-10,10-1,1-23,11-29,15-1,1-17,13-20,15-2,1-14,14-25,15-6,0-26,11-34,15-11,6-23,14-35,19-12,5-61,20-68,20-19-3-24,9-44,5-18,13-24,38-39,54 18,7 34,5 54,10 22,5 69,6 93,15 2,1 9-1 10,0 5,6 8,3 25,5 4,0 41,10 54,15 7,2 20,6 29,10 8,3 31,13 44,20 3,1 38,18 39,20 0,1 9,3 10,5 0,1 13,6 20,10 2,1 13,8 15,10 2,1 17,11 25,15 2,1 0,5 5,5 7,0 38,24 49,29 14,13 31,26 50,40 9,12 30,29 43,48 2,3 5-1 5,5 1,10 14,19 15,20 19,24 45,46 49,84-19,6-28,22-42,33-7,17-12,22-17,36-21,4-41,8-54,20-13,4-13-4-23-4-8,8-18,6-36,4-6-19 13-19 20-25 9-8 11-21 19-22 0-8 3-16 10-17 0-11-9-17-15-25-6-7-13-12-20-20-3-3-7-7-10-10-5-7-9-15-15-25-2-2-69-66-84-79-1-1-22-18-25-20-2-1-45-39-54-41 0,0-12-7-19-14-6-5-13-15-20-20-8-6-36-22-39-25-4-3-30-16-39-20-3-1-19-7-25-10-9-4-21-6-29-10-3-2-18-8-20-10-3-4-4-3-10-5-4-1-8-3-15-5-4-1-8-3-15-5 0,0-14-5-15-5-6-7-39-8-59-15-10,6-19,17-25,29-1,2-5,9-5,10-3,6-7,18-10,25-2,5-9,12-10,20 0,4-8,11-10,15-2,3-3,6-5,10-2,3-14,18-15,20-3,6-2,10-5,15-3,5-21,44-24,49-8,12-35,63-39,69-5,7-11,9-15,15-2,3 2,11 0,15-1,3-11,25-20,26-7,4-6,12-14,19-27-3-25,19-54,15-11-22-11-63 0-79 1-2 3-13 5-15 1-1 5,1 5,0 1-2-2-9 0-10 5-4 8-18 10-20 1-1 3-9 5-10 1-1 3-9 5-10 1-1 4-9 5-10 1-1 19-21 20-29 0-1 4-12 5-15 7-14 32-57 40-87 7-12 11-15 14-21 3-5 2-13 5-20 1-2 8-16 10-20 3-6 14-23 11-24-5-3-42-5-51-10-3-2 4-3 10-7 10-3 28,1 40-2 5-1 10,0 10-6 5-15-11-9-20-10-39,3-61-11-93-15-8-21-12-47-10-79 13-13 28-24 34-44 16,3 22-12 34-20 6-4 10-9 20-15 3-2 6-3 10-5 4-3 6-7 10-10 2-1 9,2 10,0 3-4 11-13 20-20 6-5 14-10 20-15 4-3 6-7 10-10 6-5 41-34 49-39 8-5 18-10 25-15 6-4 13-14 20-20 6-6 14-9 20-15 3-3 2-11 5-15 6-8 25-10 29-25-5-13-19-13-29-20-8-6-31-26-33-29-5-8-15-13-21-20-8-8-13-20-25-25 3-29-16-36-20-59-2-15 13-13 15-25 15,2 25,8 34,15 5,3 21-4 25,0 5,6 8,1 25,0 18-1 52-1 74,0-1,0 9,0 15,0 40,6 88,25 98,25 21,11 28,16 44,25 3,10 9,11 15,20 2,3 8,12 10,15 2,4-1,10 5,10z"
       id="path3061" />
    <path
       d="m3394.8437,2194.8438c0,0-16-2-18-3-19-4-25-5-44-10-19-4-35-9-44,0-23,22-3,35 15,49 10,8 23,18 34,20 14,3 33,0 37,0 12-3 23-2 32-4 9-2 17-12 25-15 14-5 27,3 30-10-12-9-58-25-66-27zm233-784c-5,5 5,28 5,25-1,14-7,4-10,20-3,13 1,20-5,29-7,10-11,35-11,54 2,7 34-15 45-19 8-3 21-8 30-10 13-3 39-8 54-15 7-3 14-11 20-15 4-3 17-13 20-15 4-3 10-3 15-5 3-1-1-5 5-5 10-1 5-16 20-15 5,10 4,40-5,54-5,8-4,16-10,25-2,4-10,5-10,10 0,3-14,13-20,20v30c-12,6-15,23-25,34-12,15-23,51-29,79-8,6-25,25-29,29-7,6-13,2-20,10-5,5-10,10-15,15-13-1-30,7-39,10-9,2-32,7-39,10-7,2-17,3-20,15-5,4-7,80-10,113-1,12 0,19-5,34 0,1-1,13 0,20 3,18 3,41 15,54 30-5 41-27 59-44 2-2 17-17 25-25 8-8 18-12 30-20 5-8 11-14 15-20 4-6 6-14 10-20 2-15-6-24-8-34 2-18 15-18 28-25 9-18 8-28 15-39 17,6 27,9 38,21 18-2 30-4 46,3 3,9 3,20-6,26-3,2-17,36-19,38-9,7-8,8-15,25-1,3-3,7-5,10-1,2-5,4-5,5-3,6-19,24-20,34-1,16-31,80-34,98-3,19-13,52-15,59-7,36-10,79-23,109 13,8 70,30 77,33 5,2 40,24 49,30 3,2-1,5 5,5 14,1 28,13 29,15 4,4 23,18 25,20 7,8 17,20 29,29 9,7 22,19 34,29 3,2 21,16 25,20 9,8 39,42 44,49 8,13 15,24 15,39-13-1-21-14-29-20-6-4-6,0-10-5-4-5-9-6-15-10-6-4-10-5-15-10-4-4-10-6-15-10-4-3-14-6-25-10-2-1-21-8-30-15-7-6-29-17-34-20-2-1-12-4-15-5-3-2-22-13-25-15-2-1-22-6-34-10-2-1-9-5-10-5-2-1-9-5-10-5-15-5-58-24-69-25-1,0-19-10-20-10-2-1-9-5-10-5-7-2-15-4-20-5-11-4-17,10-25,15-4,3-9,2-15,5-3,1-30,12-39,15-20,6-53,17-84,20-40,3-78-2-108-10-9-2-26,1-34-5-2-1-13-3-15-5-3-4-15-9-25-15-3-2-7-8-10-10-2-2-22-16-25-20-4-7-4-25-10-34-5-8-7-36-10-59 5-4 8-8 15-15 1-1 4-9 5-10 2-1 21-12 25-15 2-1 13-5 29-10 3-1 12-7 20-10 3-1 15-5 15-5 11-2 13,5 20,5 8,0 9-5 15-5 9,1 11,4 20,5 19,2 33,1 54,5 0,0 25,3 34,10 9,6 21,6 34,10 2,1 29,10 29,10 17,3 27,2 40,4 7-4 14-17 19-23 1-2 9-13 10-15 4-7 1-13 5-20 1-3 9-15 15-25 4-6 8-26 15-39-18-6-21,16-34,20-3,1-13,8-20,10-6,2-14-1-20,0-4,1-5,5-10,5-9-1-15-7-25-15-7-5-17-11-20-15-4-4-13-22-15-25-2-3-2-11-5-15-1-1-7-22-10-30-2-4-8-3-10-10-2-8-4-32-5-39-4-50 3-107 0-152-17-10-22-6-44-5-14-15-63-8-93-15 1,0-4-4-5-5-15-6-45-19-55-27-3-11-7,4-14-7-2-15 21-17 25-20 4-3 10-10 15-10 7,0 23-13 25-15 6-7 13-13 25-20 3-2 14-14 25-15 2,0 7-4 10-5 7-3 16-2 25-5 2-1 3-9 5-10 4-2 23-7 29-10 10-4 19-3 29-10 3-2 15-7 20-10 2-1 13-3 15-5 0-1 9-4 10-5 1-1 10-8 15-15 4-21 8-38 15-54 1-2 9-8 10-10 1-4 8-15 10-20 2-4 11-20 15-25 2-2 8-8 10-10 3-3 3-6 5-10 2-3 10-9 15-15 4-5 7-9 10-15h15z"
       id="path3063" />
    <path
       d="m3166.8437,1484.8438c4-1 5,2 5,5 5,9 5,20 10,29 1,2 4,1 5,5 2,8 30,112 39,123 0,58 12,116 5,167-13,12-22,27-25,49-12,11-22,36-29,39-7,4-13,10-20,15-4,2-17,9-20,10-14,8-28,13-44,20-7,6-13,13-20,20-3,4-10,10-15,15-6,6-44,28-44,34-1,24 53,45 64,49 6,16 8,34 15,49 17,4 19-7 34-5-8,34-9,71-5,108 1,10 1,15 5,29 2,9 2,12 0,29-2,21 2,42 0,64-7,0-14-1-15,5-12,6-10-9-15-15-2-2-8-3-10-5-1-2-7-13-10-20-1-2 1-9 0-10-1,0-4-9-5-10-1,0-3-9-5-10-3-2-7-12-10-29 0,1-5-19-5-20-2-9-2-21-5-29-3-8-8-12-10-20-2-12-14-64-15-69-1-13-4-13-5-25 0-3-7-15-10-20-1-2 2-8 0-10-1-1-12-12-15-20-29,5-41,29-59,44-2,1-9,3-11,5-2,2-2,8-4,10-5,4-14,1-20,5-9,7-13,26-29,20 1-7 2-10 5-15 5-8 6-6 10-20 0,0 4-14 5-15 4-3 3-4 5-10 2-9 26-56 29-64 3-7 7-17 10-25 3-8 7-14 10-25 3-8 10-24 10-29 0-9 9-6 10-20 0-8 5-18 10-25 1-1 9-7 10-10 1-11 38-79 39-83 1-3 31-50 34-54 1-1 24-37 29-44 5-7 28-58 30-59 3-3 6-15 10-29 0-1 5-1 5-5 0-7 29-89 34-103z"
       id="path3065" />
  </g>
  <path
     fill="none"
     stroke="#a9abae"
     stroke-width="41.665"
     d="m4858.8437,1706.8438c0,931-1083,1686-2419,1686-1336,0-2419-755-2419-1686 0-931 1083-1686 2419-1686 1336,0 2419,755 2419,1686z"
     id="path3067" />
  <g
     fill="#fefefe"
     fill-rule="nonzero"
     id="g3069">
    <path
       d="m2957.8437,2757.8438 82,0-40-117-41,117zm4-184 75,0 113,296-72,0-21-61-117,0-22,61-70,0 114-296z"
       id="path3071" />
    <path
       d="m3256.8437,2624.8438 0,80 72,0c14,0 25-2 32-5 13-6 19-17 19-33 0-18-6-30-18-36-7-3-17-5-31-5h-73zm137-44c12,5 22,12 30,21 7,7 12,16 16,25 4,9 6,19 6,31 0,14-4,28-11,41-8,14-20,23-38,29 15,5 25,13 31,23 6,10 9,26 9,46v20c0,14 1,23 2,28 2,8 6,13 12,17v7h-73c-2-7-3-12-4-16-2-8-3-17-3-26v-28c0-19-4-31-11-38-7-6-19-9-38-9h-65v116h-65v-296h152c22,0 39,3 50,8z"
       id="path3073" />
    <path
       d="m5307,5896-96,0 0-52 258,0 0,52-95,0 0,244-67,0z"
       transform="translate(-1728.1563 -3270.1562)"
       id="path3075" />
    <path
       d="m3827.8437,2777.8438c2,14 6,24 12,30 11,12 30,18 57,18 16,0 29-2 39-5 19-6 28-18 28-34 0-10-5-17-14-23-9-5-24-10-44-14l-34-7c-34-7-57-15-70-23-21-14-32-35-32-64 0-27 11-49 31-66 21-18 52-26 92-26 34,0 63,8 87,25 24,17 37,41 38,72h-64c-1-18-10-30-26-38-11-5-24-7-40-7-18,0-32,3-42,10-10,6-16,15-16,27 0,11 5,18 16,24 7,3 21,8 42,12l56,12c24,5 43,13 55,22 19,14 28,34 28,61 0,27-11,50-34,67-23,18-54,27-95,27-42,0-75-9-99-26-24-18-36-42-36-73h63z"
       id="path3077" />
    <path
       d="m2913.8437,1145.8438c-960-135-1764-470-2403-808h-1l-10-5h1c9-1 7-1-1,0l-187-98-53,123c-1,0-1,0-1,0l-4,11 0,0-8,22c-5,15-11,29-14,44-4,29-14,59-12,88-4,59 6,118 26,176 38,116 126,229 245,335 73,65 160,126 259,185-12-3-24-5-36-8-61-13-121-26-184-38l-94-19-48-9-24-5-6-1c0,0-226,62-186,51l2,6c14,61 47,121 102,178 108,113 282,209 470,295 118,52 242,101 370,147-49-5-102-7-161-6l-35,1h-9c-44,20 92-46-99,46v2 6l1,26c5,16 9,33 19,48 16,31 44,60 72,88 118,109 285,200 417,292 246,196 568,387 941,549 174,74 96,32 104,30-344-147-649-312-825-447-63-44 81,39 27-7-67-43-175-134-241-175-51-46 91,36 40-10-53-46-327-214-352-264-118-141 82,93 313,215-56-45 132,85 138,84 20-3 37-12-210-184-57-43 18-4 27-7-89-61-174-124-209-186 56,7 121,20 186,33 86,17 171,38 280,51 51,8 112,12 173,14l23,1h3 1c37-42-80,94 83-94l-3-1-7-2-28-9-56-19c-149-49-297-98-438-149-281-102-545-212-714-341-55-43-99-87-127-133l14,3 249,51c118,23 242,47 376,66 3,1 6,2 8,4l9,4c-4,3-1,1 7-4 18,2 35,5 52,7l4,1h1c57-40 103-72 103-72l-6-3-30-13-10-7c0,0-1,0-1,0l-8-1-22-9c-28-11-53-24-78-36-53-24-99-51-148-76-186-107-333-229-421-357-77-114-107-233-88-348 17,9 35,18 52,26 103,51 208,100 314,146 251,113 703,290 922,341-98-31-196-63-290-97 294,94 584,192 923,261 5-4 7-6 122,15-230-42-546-125-740-189l10-5c199,60 505,148 737,188 2-2 7-6 9-8 1-1 51,8 119,19-117-20-259-48-336-68 3-2 8-6 10-7 2-1 109,23 220,44 4-3 119,13 11-10-110-21-216-45-321-71 423,102 672,109 672,104-114-12-110-17-220-34 339,49 672,48 233,15z"
       id="path3079" />
  </g>
  <path
     inkscape:connector-curvature="0"
     d="M 807.00612,487.4715 509.8436,337.8438 l -10,-5 1,0 c 9,-1 7,-1 -1,0 l -186.9999,-98 -53.0001,123 c -1,0 -1,0 -1,0 l -4,11 0,0 -8,22 c -5,15 -10.9999,29 -13.9999,44 -4,29 -14,59 -12,88 -4,59 6,118 25.9999,176 43.04416,116.2522 105.53174,188.72226 105.53174,188.72226 44.89938,-52.80849 92.72022,-105.08581 145.01004,-156.55058 0,0 -54.54178,-138.17168 -35.54178,-253.17168 17,9 35,18 52,26 103,51 160.37035,77.10531 160.37035,77.10531 43.9731,-34.06879 88.34935,-64.10609 132.79217,-93.47761 z"
     id="path3079-2"
     sodipodi:nodetypes="cccccccccccccccccccc"
     style="fill:#555555;fill-opacity:1" />
</svg>
